<mxfile host="app.diagrams.net" modified="2024-07-04T11:08:58.946Z" agent="Mozilla/5.0 (X11; Linux x86_64) AppleWebKit/537.36 (KHTML, like Gecko) Chrome/126.0.0.0 Safari/537.36 Edg/126.0.0.0" version="24.6.4" etag="vG5woc-oTUBo57HwhSpw" type="github">
  <diagram name="第 1 页" id="hi9ax4sM-fP_jrTkE1y_">
    <mxGraphModel>
      <root>
        <mxCell id="0" />
        <mxCell id="1" parent="0" />
      </root>
    </mxGraphModel>
  </diagram>
</mxfile>
